<svg xmlns="http://www.w3.org/2000/svg" viewBox="0 0 1200 630" width="1200" height="630" role="img" aria-labelledby="a1Titulo a1Desc">
  <title id="a1Titulo">A origem da palavra "xamã"</title>
  <desc id="a1Desc">Ilustração cinematográfica de uma taiga siberiana nevada ao entardecer de inverno, com camadas de abetos escuros em silhueta, um sol baixo e pálido no horizonte e um céu que passa de azul profundo a dourado, sem pessoas.</desc>
  <defs>
    <linearGradient id="ceuOrigem" x1="0" y1="0" x2="0" y2="1">
      <stop offset="0%" stop-color="#050914"/>
      <stop offset="38%" stop-color="#0e1c30"/>
      <stop offset="68%" stop-color="#4a3d1e"/>
      <stop offset="100%" stop-color="#a97f34"/>
    </linearGradient>
    <radialGradient id="solOrigem" cx="50%" cy="100%" r="70%">
      <stop offset="0%" stop-color="#f2c96d" stop-opacity="0.95"/>
      <stop offset="40%" stop-color="#f2c96d" stop-opacity="0.4"/>
      <stop offset="100%" stop-color="#f2c96d" stop-opacity="0"/>
    </radialGradient>
    <linearGradient id="taigaFundo" x1="0" y1="0" x2="0" y2="1">
      <stop offset="0%" stop-color="#26344a"/>
      <stop offset="100%" stop-color="#101a28"/>
    </linearGradient>
    <linearGradient id="taigaMeio" x1="0" y1="0" x2="0" y2="1">
      <stop offset="0%" stop-color="#141f18"/>
      <stop offset="100%" stop-color="#080c0a"/>
    </linearGradient>
    <linearGradient id="neveOrigem" x1="0" y1="0" x2="0" y2="1">
      <stop offset="0%" stop-color="#dfe6ef" stop-opacity="0.22"/>
      <stop offset="100%" stop-color="#dfe6ef" stop-opacity="0.04"/>
    </linearGradient>
  </defs>
  <rect width="1200" height="630" fill="url(#ceuOrigem)"/>
  <g fill="#f7ecc9" opacity="0.7">
    <circle cx="80" cy="70" r="1.3"/><circle cx="170" cy="120" r="1"/><circle cx="260" cy="55" r="1.5"/>
    <circle cx="360" cy="95" r="1.1"/><circle cx="900" cy="60" r="1.4"/><circle cx="1010" cy="110" r="1"/>
    <circle cx="1100" cy="70" r="1.3"/><circle cx="470" cy="40" r="1"/><circle cx="1150" cy="140" r="1.1"/>
  </g>
  <ellipse cx="600" cy="480" rx="750" ry="300" fill="url(#solOrigem)"/>
  <circle cx="600" cy="452" r="50" fill="#ffe7a3" opacity="0.95"/>
  <path d="M0,630 L0,380 L60,300 L110,380 L150,320 L200,380 L260,290 L320,380 L380,330 L430,380 L480,300 L540,380 L600,310 L660,380 L710,300 L770,380 L830,330 L880,380 L940,290 L1000,380 L1050,320 L1100,380 L1150,300 L1200,380 L1200,630 Z" fill="url(#taigaFundo)" opacity="0.85"/>
  <path d="M0,630 L0,460 L50,380 L95,460 L140,400 L190,460 L245,370 L300,460 L355,410 L405,460 L455,380 L515,460 L575,390 L635,460 L685,380 L745,460 L800,410 L855,460 L915,370 L975,460 L1025,400 L1080,460 L1130,380 L1200,460 L1200,630 Z" fill="url(#taigaMeio)"/>
  <path d="M0,630 L0,540 L45,470 L85,540 L130,480 L175,540 L225,460 L280,540 L330,485 L380,540 L425,470 L480,540 L540,475 L600,540 L655,470 L715,540 L765,480 L820,540 L875,465 L935,540 L985,480 L1040,540 L1090,470 L1145,540 L1200,470 L1200,630 Z" fill="#050907"/>
  <rect x="0" y="500" width="1200" height="130" fill="url(#neveOrigem)"/>
  <rect x="0" y="595" width="1200" height="35" fill="#e7edf5" opacity="0.06"/>
</svg>
