<svg xmlns="http://www.w3.org/2000/svg" viewBox="0 0 1200 630" width="1200" height="630" role="img" aria-labelledby="capaTitulo capaDesc">
  <title id="capaTitulo">O que é o Xamanismo?</title>
  <desc id="capaDesc">Ilustração de uma floresta ancestral ao amanhecer, com as últimas estrelas se apagando em um céu que passa de azul profundo a dourado, em tons de verde-musgo, dourado, marrom e preto.</desc>
  <defs>
    <linearGradient id="ceuA1" x1="0" y1="0" x2="0" y2="1">
      <stop offset="0%" stop-color="#050914"/>
      <stop offset="38%" stop-color="#0b1220"/>
      <stop offset="72%" stop-color="#3a3320"/>
      <stop offset="100%" stop-color="#8a6a2e"/>
    </linearGradient>
    <radialGradient id="soloA1" cx="50%" cy="0%" r="75%">
      <stop offset="0%" stop-color="#f2c96d" stop-opacity="0.55"/>
      <stop offset="45%" stop-color="#f2c96d" stop-opacity="0.16"/>
      <stop offset="100%" stop-color="#f2c96d" stop-opacity="0"/>
    </radialGradient>
    <linearGradient id="mataFundoA1" x1="0" y1="0" x2="0" y2="1">
      <stop offset="0%" stop-color="#24331f"/>
      <stop offset="100%" stop-color="#0c130d"/>
    </linearGradient>
    <linearGradient id="mataMeioA1" x1="0" y1="0" x2="0" y2="1">
      <stop offset="0%" stop-color="#182415"/>
      <stop offset="100%" stop-color="#080c07"/>
    </linearGradient>
    <linearGradient id="neblinaA1" x1="0" y1="0" x2="0" y2="1">
      <stop offset="0%" stop-color="#f2e6c2" stop-opacity="0"/>
      <stop offset="100%" stop-color="#f2e6c2" stop-opacity="0.16"/>
    </linearGradient>
  </defs>
  <rect width="1200" height="630" fill="url(#ceuA1)"/>
  <g fill="#f7ecc9" opacity="0.75">
    <circle cx="90" cy="60" r="1.4"/><circle cx="180" cy="100" r="1"/><circle cx="260" cy="45" r="1.6"/>
    <circle cx="340" cy="90" r="1.1"/><circle cx="430" cy="55" r="1.3"/><circle cx="70" cy="150" r="1"/>
    <circle cx="510" cy="35" r="1.5"/><circle cx="150" cy="200" r="1.1"/><circle cx="600" cy="70" r="1"/>
    <circle cx="240" cy="140" r="1.3"/><circle cx="680" cy="40" r="1.2"/><circle cx="330" cy="190" r="1"/>
    <circle cx="40" cy="90" r="1.2"/><circle cx="120" cy="30" r="1"/>
  </g>
  <rect x="0" y="0" width="1200" height="380" fill="url(#soloA1)"/>
  <path d="M0,630 L0,360 Q100,300 220,350 Q340,280 460,340 Q580,270 700,340 Q820,280 940,350 Q1060,300 1200,360 L1200,630 Z" fill="url(#mataFundoA1)"/>
  <path d="M0,630 L0,440 Q140,380 280,440 Q420,370 560,440 Q700,375 840,440 Q980,380 1200,440 L1200,630 Z" fill="url(#mataMeioA1)"/>
  <path d="M0,630 L0,520 Q160,470 320,520 Q480,460 640,520 Q800,465 960,520 Q1080,475 1200,520 L1200,630 Z" fill="#060907"/>
  <rect x="0" y="480" width="1200" height="150" fill="url(#neblinaA1)"/>
</svg>
