<svg xmlns="http://www.w3.org/2000/svg" viewBox="0 0 1200 630" width="1200" height="630" role="img" aria-labelledby="capaTitulo capaDesc">
  <title id="capaTitulo">Módulo 2 — As Origens e os Caminhos do Xamanismo</title>
  <desc id="capaDesc">Ilustração abstrata de uma floresta escura sob um céu estrelado, com uma fogueira cerimonial ao centro, em tons de verde-musgo, dourado e azul profundo.</desc>
  <defs>
    <linearGradient id="ceuM2" x1="0" y1="0" x2="0" y2="1">
      <stop offset="0%" stop-color="#030305"/>
      <stop offset="55%" stop-color="#0b1220"/>
      <stop offset="100%" stop-color="#0e1a14"/>
    </linearGradient>
    <radialGradient id="fogoM2" cx="50%" cy="100%" r="65%">
      <stop offset="0%" stop-color="#f0c56a" stop-opacity="0.55"/>
      <stop offset="45%" stop-color="#f0c56a" stop-opacity="0.14"/>
      <stop offset="100%" stop-color="#f0c56a" stop-opacity="0"/>
    </radialGradient>
    <linearGradient id="montanhaM2" x1="0" y1="0" x2="0" y2="1">
      <stop offset="0%" stop-color="#1a2a1e"/>
      <stop offset="100%" stop-color="#0b120c"/>
    </linearGradient>
  </defs>
  <rect width="1200" height="630" fill="url(#ceuM2)"/>
  <g fill="#f0c56a" opacity="0.8">
    <circle cx="120" cy="90" r="1.6"/><circle cx="260" cy="60" r="1.2"/><circle cx="400" cy="120" r="1.8"/>
    <circle cx="560" cy="50" r="1.3"/><circle cx="700" cy="100" r="1.6"/><circle cx="840" cy="70" r="1.2"/>
    <circle cx="980" cy="130" r="1.8"/><circle cx="1100" cy="60" r="1.4"/><circle cx="190" cy="180" r="1.1"/>
    <circle cx="330" cy="150" r="1.4"/><circle cx="480" cy="200" r="1.1"/><circle cx="640" cy="160" r="1.3"/>
    <circle cx="790" cy="190" r="1.1"/><circle cx="930" cy="200" r="1.4"/><circle cx="1050" cy="150" r="1.2"/>
  </g>
  <circle cx="1000" cy="110" r="34" fill="#efe1c5" opacity="0.85"/>
  <circle cx="1012" cy="100" r="34" fill="#0b1220"/>
  <path d="M0,630 L0,430 Q120,330 240,420 Q360,300 480,410 Q600,290 720,420 Q840,320 960,410 Q1080,340 1200,420 L1200,630 Z" fill="url(#montanhaM2)"/>
  <path d="M0,630 L0,500 Q150,430 300,500 Q450,420 600,500 Q750,430 900,500 Q1050,440 1200,500 L1200,630 Z" fill="#0e1a14"/>
  <rect x="0" y="470" width="1200" height="160" fill="url(#fogoM2)"/>
  <g transform="translate(600,560)">
    <ellipse cx="0" cy="46" rx="70" ry="10" fill="#000" opacity="0.35"/>
    <path d="M-26,44 L-6,-14 L14,44 Z" fill="#241a12"/>
    <path d="M6,44 L18,-10 L34,44 Z" fill="#1a130c"/>
    <path d="M-4,44 L4,-26 L20,44 Z" fill="#2c2013"/>
    <path d="M0,-10 C-16,10 -12,30 0,40 C12,30 16,10 0,-10 Z" fill="#f0c56a"/>
    <path d="M0,-2 C-8,10 -6,22 0,28 C6,22 8,10 0,-2 Z" fill="#ffd987"/>
  </g>
  <text x="60" y="560" font-family="Georgia, 'Times New Roman', serif" font-size="40" fill="#efe1c5" letter-spacing="0.02em">Módulo 2</text>
  <text x="60" y="596" font-family="Georgia, 'Times New Roman', serif" font-size="21" fill="#d8cbb6">As Origens e os Caminhos do Xamanismo</text>
</svg>
