<svg width="960" height="620" viewBox="0 0 960 620" fill="none" xmlns="http://www.w3.org/2000/svg" role="img" aria-labelledby="title desc">
  <title id="title">Produtos místicos em destaque</title>
  <desc id="desc">Composição publicitária com incensário, cristal ametista, velas, quartzo e ervas para a Mística Presentes.</desc>
  <defs>
    <radialGradient id="halo" cx="48%" cy="35%" r="60%"><stop stop-color="#5A2F75" stop-opacity="0.72"/><stop offset="0.48" stop-color="#170D1E" stop-opacity="0.82"/><stop offset="1" stop-color="#060609" stop-opacity="0"/></radialGradient>
    <linearGradient id="gold" x1="152" y1="82" x2="431" y2="565" gradientUnits="userSpaceOnUse"><stop stop-color="#FFF0B8"/><stop offset="0.48" stop-color="#DDA63D"/><stop offset="1" stop-color="#76501F"/></linearGradient>
    <linearGradient id="amethyst" x1="465" y1="138" x2="604" y2="430" gradientUnits="userSpaceOnUse"><stop stop-color="#D7B6FF"/><stop offset="0.48" stop-color="#6E338F"/><stop offset="1" stop-color="#1C1026"/></linearGradient>
    <linearGradient id="flame" x1="734" y1="162" x2="734" y2="245" gradientUnits="userSpaceOnUse"><stop stop-color="#FFF8D1"/><stop offset="0.5" stop-color="#F7BE43"/><stop offset="1" stop-color="#B4541E"/></linearGradient>
  </defs>
  <rect width="960" height="620" rx="44" fill="#09080D"/><rect width="960" height="620" rx="44" fill="url(#halo)"/>
  <path d="M79 500C245 458 409 452 563 477C686 497 779 494 896 458V620H64L79 500Z" fill="#120B11"/>
  <g opacity="0.45" stroke="#A97325" stroke-width="2"><circle cx="690" cy="190" r="118"/><circle cx="690" cy="190" r="78"/><path d="M690 72V308M572 190H808M607 107L773 273M773 107L607 273"/><path d="M690 111L715 166L776 174L731 215L743 275L690 244L637 275L649 215L604 174L665 166L690 111Z"/></g>
  <g fill="#F0C56A" opacity="0.8"><path d="M106 108L115 126L135 129L120 143L124 163L106 153L88 163L92 143L77 129L97 126L106 108Z"/><path d="M838 94L844 107L858 109L848 119L850 133L838 126L826 133L828 119L818 109L832 107L838 94Z"/><circle cx="450" cy="86" r="5"/><circle cx="792" cy="333" r="5"/></g>
  <path d="M208 216C216 174 251 146 294 146C337 146 373 174 381 216H208Z" fill="url(#gold)"/><path d="M196 223H393C377 253 341 272 294 272C247 272 212 253 196 223Z" fill="#A97325" stroke="#F6D989" stroke-width="5"/><path d="M235 268H353L376 500C331 531 259 531 213 500L235 268Z" fill="url(#gold)" stroke="#F6D989" stroke-width="5"/><ellipse cx="294" cy="500" rx="91" ry="28" fill="#4D2E14" stroke="#DDA63D" stroke-width="5"/><path d="M264 164C250 122 288 96 294 62C305 98 340 124 326 164" fill="#B77A29" stroke="#F6D989" stroke-width="5"/>
  <path d="M508 150L569 202L540 428L454 430L421 231L508 150Z" fill="url(#amethyst)" stroke="#D8B8FF" stroke-width="4"/><path d="M508 150L506 431M421 231L540 428M569 202L454 430" stroke="#FFFFFF" stroke-opacity="0.22" stroke-width="3"/><path d="M590 185L637 236L615 424L545 427L521 252L590 185Z" fill="#432056" stroke="#A978D2" stroke-width="4"/>
  <path d="M690 250H780L797 489C765 513 704 513 673 489L690 250Z" fill="#141018" stroke="#C39552" stroke-width="5"/><ellipse cx="735" cy="251" rx="45" ry="14" fill="#2B162E" stroke="#F0C56A" stroke-width="4"/><path d="M735 156C758 190 755 219 735 241C715 219 712 190 735 156Z" fill="url(#flame)"/><path d="M736 190C746 209 745 225 735 239C726 225 725 209 736 190Z" fill="#FFF8D1" opacity="0.8"/>
  <path d="M806 333L846 245L886 333L850 505H842L806 333Z" fill="#EDE3CE" fill-opacity="0.58" stroke="#F8F0DF" stroke-width="4"/><path d="M846 245V505M806 333H886" stroke="#FFFFFF" stroke-opacity="0.36" stroke-width="3"/><path d="M821 456C858 430 895 414 928 423" stroke="#8FA15D" stroke-width="13" stroke-linecap="round"/><path d="M812 485C858 461 903 451 943 462" stroke="#B6A057" stroke-width="12" stroke-linecap="round"/><path d="M816 514C859 497 903 492 941 505" stroke="#6F853F" stroke-width="12" stroke-linecap="round"/>
  <g opacity="0.58" stroke="#E8E3F5" stroke-width="5" stroke-linecap="round"><path d="M302 140C292 104 347 90 329 52"/><path d="M276 140C263 110 291 95 284 63"/><path d="M331 141C352 108 383 100 376 66"/></g>
</svg>