<svg width="960" height="620" viewBox="0 0 960 620" fill="none" xmlns="http://www.w3.org/2000/svg" role="img" aria-labelledby="title desc">
  <title id="title">Banner místico com produtos selecionados</title>
  <desc id="desc">Imagem hero com cristais ametista, velas acesas, incensário com fumaça, ervas e penas xamânicas.</desc>
  <defs>
    <radialGradient id="bg" cx="55%" cy="37%" r="68%"><stop stop-color="#4b2464" stop-opacity=".72"/><stop offset=".52" stop-color="#151019"/><stop offset="1" stop-color="#050507"/></radialGradient>
    <linearGradient id="gold" x1="120" y1="60" x2="430" y2="555"><stop stop-color="#fff0b8"/><stop offset=".5" stop-color="#d69c33"/><stop offset="1" stop-color="#6f4718"/></linearGradient>
    <linearGradient id="amethyst" x1="405" y1="118" x2="650" y2="475"><stop stop-color="#d8b6ff"/><stop offset=".48" stop-color="#6d2f8b"/><stop offset="1" stop-color="#160a1e"/></linearGradient>
    <linearGradient id="flame" x1="730" y1="142" x2="730" y2="245"><stop stop-color="#fffbd8"/><stop offset=".52" stop-color="#f7b83f"/><stop offset="1" stop-color="#a54818"/></linearGradient>
  </defs>
  <rect width="960" height="620" rx="44" fill="#07070b"/><rect width="960" height="620" rx="44" fill="url(#bg)"/>
  <g opacity=".34" stroke="#a97325" stroke-width="2" fill="none"><circle cx="692" cy="184" r="126"/><circle cx="692" cy="184" r="82"/><path d="M692 58v252M566 184h252M604 96l176 176M780 96 604 272"/><path d="M692 109l28 60 66 9-48 45 12 66-58-33-58 33 12-66-48-45 66-9 28-60Z"/></g>
  <path d="M54 505c146-58 318-70 514-38 134 22 229 12 338-30v183H54V505Z" fill="#120b10"/>
  <g stroke="#f0c56a" stroke-width="2" fill="#f0c56a" opacity=".78"><path d="M108 104l11 24 26 4-19 18 5 26-23-13-23 13 5-26-19-18 26-4 11-24Z"/><path d="M838 92l8 17 19 3-14 13 3 19-16-9-17 9 4-19-14-13 18-3 9-17Z"/><circle cx="455" cy="82" r="5"/><circle cx="807" cy="343" r="5"/></g>
  <g opacity=".58" stroke="#e7e3f7" stroke-width="5" stroke-linecap="round"><path d="M306 142c-12-42 48-57 28-101"/><path d="M277 143c-14-35 18-52 10-88"/><path d="M340 143c23-38 58-47 50-86"/></g>
  <g><path d="M210 222c10-48 46-78 91-78s82 30 91 78H210Z" fill="url(#gold)"/><path d="M196 229h210c-17 32-55 52-105 52s-88-20-105-52Z" fill="#9b651f" stroke="#f6d989" stroke-width="5"/><path d="M240 278h122l25 222c-48 34-122 34-170 0l23-222Z" fill="url(#gold)" stroke="#f6d989" stroke-width="5"/><ellipse cx="302" cy="500" rx="96" ry="30" fill="#4b2d13" stroke="#d99b35" stroke-width="5"/><path d="M271 166c-13-42 26-69 32-105 12 37 47 63 33 105" fill="#b87525" stroke="#f6d989" stroke-width="5"/><path d="M260 346l12 25 28 4-20 19 5 28-25-14-25 14 5-28-20-19 28-4 12-25ZM337 327l10 21 23 3-17 16 4 23-20-11-21 11 4-23-17-16 24-3 10-21Z" fill="#10090d"/></g>
  <g><path d="M510 135l68 70-36 247-96 2-39-218 103-101Z" fill="url(#amethyst)" stroke="#dfc2ff" stroke-width="4"/><path d="M510 135v319M407 236l135 216M578 205l-132 249" stroke="#fff" stroke-opacity=".22" stroke-width="3"/><path d="M604 182l58 63-30 208-84 3-31-195 87-79Z" fill="#432056" stroke="#aa78d2" stroke-width="4"/><path d="M455 234l55-99 68 70 26-23 58 63-31 66-82-35-42 63-62-43-38-60 48-2Z" fill="#a75dd1" opacity=".36"/></g>
  <g><path d="M690 252h88l18 237c-32 28-91 28-124 0l18-237Z" fill="#151019" stroke="#c39552" stroke-width="5"/><ellipse cx="734" cy="252" rx="44" ry="14" fill="#2b162e" stroke="#f0c56a" stroke-width="4"/><path d="M734 150c28 41 25 72 0 94-25-22-28-53 0-94Z" fill="url(#flame)"/><path d="M735 190c11 21 10 37 0 50-10-13-11-29 0-50Z" fill="#fff8d1" opacity=".86"/><path d="M734 336l15 30 33 5-24 23 6 33-30-16-30 16 6-33-24-23 33-5 15-30Z" fill="#08070b" stroke="#d99b35" stroke-width="3"/></g>
  <g><path d="M806 333l40-88 40 88-36 172h-8l-36-172Z" fill="#ede3ce" fill-opacity=".62" stroke="#f8f0df" stroke-width="4"/><path d="M846 245v260M806 333h80" stroke="#fff" stroke-opacity=".34" stroke-width="3"/><path d="M820 456c40-28 79-43 118-33" stroke="#8fa15d" stroke-width="13" stroke-linecap="round"/><path d="M810 486c50-27 96-36 138-22" stroke="#b6a057" stroke-width="12" stroke-linecap="round"/><path d="M815 516c44-19 89-24 129-10" stroke="#6f853f" stroke-width="12" stroke-linecap="round"/><path d="M837 416c24-34 52-55 84-63" stroke="#d7c7a6" stroke-width="8" stroke-linecap="round"/><path d="M842 418c17 12 35 17 56 14" stroke="#f0c56a" stroke-width="5" stroke-linecap="round"/></g>
</svg>