<svg xmlns="http://www.w3.org/2000/svg" viewBox="0 0 900 1125" role="img" aria-labelledby="title desc">
  <title id="title">Isis humana xamânica</title>
  <desc id="desc">Representação adulta, elegante e misteriosa da assistente Isis em estética xamânica premium.</desc>
  <defs>
    <radialGradient id="bg" cx="50%" cy="22%" r="78%">
      <stop offset="0" stop-color="#2b3b20"/>
      <stop offset="0.45" stop-color="#151a12"/>
      <stop offset="1" stop-color="#040406"/>
    </radialGradient>
    <linearGradient id="skin" x1="32%" y1="18%" x2="68%" y2="80%">
      <stop offset="0" stop-color="#e0aa78"/>
      <stop offset="1" stop-color="#8d553c"/>
    </linearGradient>
    <linearGradient id="robe" x1="20%" y1="18%" x2="80%" y2="92%">
      <stop offset="0" stop-color="#1d311e"/>
      <stop offset="0.52" stop-color="#0c160d"/>
      <stop offset="1" stop-color="#3a2444"/>
    </linearGradient>
    <linearGradient id="gold" x1="20%" y1="14%" x2="84%" y2="86%">
      <stop offset="0" stop-color="#fff1bd"/>
      <stop offset="0.52" stop-color="#f0c56a"/>
      <stop offset="1" stop-color="#9b6c20"/>
    </linearGradient>
    <filter id="softGlow" x="-25%" y="-25%" width="150%" height="150%">
      <feGaussianBlur stdDeviation="12" result="blur"/>
      <feMerge><feMergeNode in="blur"/><feMergeNode in="SourceGraphic"/></feMerge>
    </filter>
  </defs>
  <rect width="900" height="1125" fill="url(#bg)"/>
  <circle cx="450" cy="308" r="260" fill="none" stroke="#f0c56a" stroke-opacity=".22" stroke-width="3"/>
  <ellipse cx="450" cy="344" rx="340" ry="188" fill="none" stroke="#b8c977" stroke-opacity=".18" stroke-width="3" transform="rotate(-12 450 344)"/>
  <ellipse cx="450" cy="344" rx="300" ry="150" fill="none" stroke="#f0c56a" stroke-opacity=".16" stroke-width="2" transform="rotate(18 450 344)"/>

  <path d="M278 408c22-132 90-216 172-216s150 84 172 216c-46-40-103-62-172-62s-126 22-172 62Z" fill="#08070d" opacity=".88"/>
  <path d="M340 300c-34 44-52 94-53 150 38-34 91-55 163-55 71 0 124 21 163 55-2-56-20-106-54-150-25 38-63 58-109 58s-85-20-110-58Z" fill="#120914"/>
  <path d="M386 236c16-44 45-67 64-67s48 23 64 67c-27 16-42 24-64 24s-38-8-64-24Z" fill="#10150e"/>
  <path d="M367 264c36 30 130 30 166 0 5 45-7 105-27 134-16 23-34 34-56 34s-40-11-56-34c-20-29-32-89-27-134Z" fill="url(#skin)"/>
  <path d="M348 306c-25 27-32 70-24 113 30-36 58-58 84-68-23-12-42-27-60-45Z" fill="#0b090d" opacity=".76"/>
  <path d="M552 306c25 27 32 70 24 113-30-36-58-58-84-68 23-12 42-27 60-45Z" fill="#0b090d" opacity=".76"/>

  <path d="M258 1040c14-254 84-410 192-410s178 156 192 410H258Z" fill="url(#robe)"/>
  <path d="M292 1040c30-194 82-316 158-316s128 122 158 316H292Z" fill="#11190e" opacity=".66"/>
  <path d="M360 630c28 42 58 63 90 63s62-21 90-63c-12-37-42-61-90-61s-78 24-90 61Z" fill="#0a0a0f"/>
  <path d="M403 588c10 28 25 43 47 43s37-15 47-43c-17 7-33 11-47 11s-30-4-47-11Z" fill="url(#skin)"/>

  <path d="M314 522c48 36 95 54 136 54s88-18 136-54" fill="none" stroke="url(#gold)" stroke-width="12" stroke-linecap="round" filter="url(#softGlow)"/>
  <path d="M450 576l-28 64 28 48 28-48-28-64Z" fill="url(#gold)"/>
  <circle cx="450" cy="668" r="12" fill="#b8c977"/>
  <path d="M218 730c72-50 140-80 204-90M682 730c-72-50-140-80-204-90" fill="none" stroke="#b8c977" stroke-opacity=".34" stroke-width="10" stroke-linecap="round"/>
  <path d="M280 214c34-58 84-100 170-100s136 42 170 100" fill="none" stroke="url(#gold)" stroke-width="10" stroke-linecap="round"/>
  <path d="M450 74l18 48 48 18-48 18-18 48-18-48-48-18 48-18 18-48Z" fill="#ffd987"/>
  <path d="M602 164c22 4 42 13 60 28-23 10-43 15-60 16-12-13-12-29 0-44Z" fill="#b8c977" opacity=".86"/>
  <path d="M298 164c-22 4-42 13-60 28 23 10 43 15 60 16 12-13 12-29 0-44Z" fill="#b8c977" opacity=".86"/>
  <text x="450" y="1010" text-anchor="middle" fill="#f0c56a" opacity=".48" font-family="Cinzel, Georgia, serif" font-size="42" letter-spacing="10">ISIS</text>
</svg>
