<svg width="512" height="512" viewBox="0 0 512 512" fill="none" xmlns="http://www.w3.org/2000/svg" role="img" aria-labelledby="title desc">
  <title id="title">Logo Mística Presentes</title>
  <desc id="desc">Símbolo minimalista exclusivo com lua crescente, cristal, árvore da vida, pena xamânica e círculo sagrado.</desc>
  <defs>
    <radialGradient id="bg" cx="50%" cy="46%" r="64%"><stop stop-color="#18220f"/><stop offset="0.58" stop-color="#0b0d0a"/><stop offset="1" stop-color="#050507"/></radialGradient>
    <linearGradient id="gold" x1="122" y1="70" x2="382" y2="442"><stop stop-color="#fff1b8"/><stop offset="0.48" stop-color="#d9a746"/><stop offset="1" stop-color="#7c521e"/></linearGradient>
    <linearGradient id="sage" x1="180" y1="170" x2="333" y2="390"><stop stop-color="#d9e7a0"/><stop offset="1" stop-color="#62783a"/></linearGradient>
  </defs>
  <rect width="512" height="512" rx="128" fill="#050507"/>
  <rect x="24" y="24" width="464" height="464" rx="108" fill="url(#bg)" stroke="#4d3a1a" stroke-width="2"/>
  <circle cx="256" cy="256" r="184" stroke="url(#gold)" stroke-width="7"/>
  <circle cx="256" cy="256" r="151" stroke="#c5d58f" stroke-opacity=".34" stroke-width="2" stroke-dasharray="5 13"/>
  <path d="M333 91c-48 17-82 63-82 116 0 68 55 123 123 123 14 0 28-2 41-7-27 48-78 81-137 81-87 0-158-71-158-158 0-77 55-141 128-155 29-6 58-4 85 0Z" fill="url(#gold)"/>
  <path d="M333 127c-28 17-46 47-46 82 0 51 42 93 93 93 11 0 22-2 32-6-18 27-49 44-84 44-56 0-101-45-101-101 0-50 37-93 86-100 9-1 16-5 20-12Z" fill="#0b0d0a"/>
  <path d="M256 124 294 226 256 356 218 226 256 124Z" fill="none" stroke="#fff0b8" stroke-width="7" stroke-linejoin="round"/>
  <path d="M218 226h76M256 124v232" stroke="#d9a746" stroke-width="4" stroke-linecap="round" opacity=".78"/>
  <path d="M256 356 201 414h110l-55-58Z" fill="none" stroke="url(#gold)" stroke-width="7" stroke-linejoin="round"/>
  <path d="M256 260c-26-38-24-77 0-112 24 35 26 74 0 112Z" fill="url(#sage)" opacity=".92"/>
  <path d="M256 258c-43-16-69-47-74-93 42 12 67 43 74 93ZM256 258c43-16 69-47 74-93-42 12-67 43-74 93Z" fill="url(#sage)" opacity=".82"/>
  <path d="M256 184v154M210 382c38-45 48-92 46-146M302 382c-38-45-48-92-46-146" stroke="#6f853f" stroke-width="5" stroke-linecap="round"/>
  <path d="M156 322c54-19 92-55 115-108-7 66-38 112-115 108Z" fill="none" stroke="#fff0b8" stroke-width="6" stroke-linecap="round"/>
  <path d="M172 315c23 18 48 24 77 19" stroke="#d9a746" stroke-width="5" stroke-linecap="round" opacity=".78"/>
  <path d="M174 149l10 22 24 3-17 17 4 24-21-12-22 12 4-24-17-17 24-3 11-22Z" fill="#f6d989"/>
  <circle cx="357" cy="148" r="7" fill="#f6d989"/><circle cx="389" cy="254" r="5" fill="#f6d989"/><circle cx="135" cy="252" r="5" fill="#f6d989"/>
</svg>