<svg xmlns="http://www.w3.org/2000/svg" viewBox="0 0 1200 630" role="img" aria-labelledby="t d"><title id="t">Por que ainda usamos incensos?</title><desc id="d">Ambiente contemporâneo calmo com janela, plantas, livro e um incenso queimando com ventilação.</desc><defs><linearGradient id="b" x2="1" y2="1"><stop stop-color="#07100b"/><stop offset=".55" stop-color="#142018"/><stop offset="1" stop-color="#3b2714"/></linearGradient><linearGradient id="w" y2="1"><stop stop-color="#f2d18a" stop-opacity=".75"/><stop offset="1" stop-color="#f2d18a" stop-opacity=".08"/></linearGradient></defs><rect width="1200" height="630" fill="url(#b)"/><rect x="790" y="80" width="300" height="340" rx="8" fill="url(#w)" stroke="#d3a54f" stroke-width="3"/><line x1="940" y1="80" x2="940" y2="420" stroke="#c99b4c" stroke-width="3"/><line x1="790" y1="250" x2="1090" y2="250" stroke="#c99b4c" stroke-width="3"/><path d="M760 520h380" stroke="#6b4a29" stroke-width="42"/><g fill="#5d784d"><path d="M1040 500c-35-100 25-155 55-190-5 80 55 105 10 190z"/><path d="M990 500c-25-85 20-125 50-160-8 70 35 95 2 160z"/></g><rect x="730" y="455" width="185" height="14" rx="7" fill="#b18142"/><circle cx="815" cy="450" r="8" fill="#efbb58"/><g fill="none" stroke="#eee9dc" stroke-linecap="round" opacity=".58"><path d="M815 435C760 390 855 350 795 305C760 280 830 245 805 210" stroke-width="10"/></g><g fill="#f2d89c"><text x="70" y="125" font-family="Arial" font-size="21" letter-spacing="5">AULA 3 · PRESENTE</text><text x="70" y="215" font-family="Georgia" font-size="61">Por que ainda</text><text x="70" y="290" font-family="Georgia" font-size="61">usamos incensos?</text><line x1="70" y1="330" x2="620" y2="330" stroke="#d3a54f"/><text x="70" y="385" font-family="Arial" font-size="23">Memória, espiritualidade e segurança</text></g><g fill="#cbb98f" font-family="Arial" font-size="18"><text x="75" y="515">VENTILAÇÃO</text><text x="260" y="515">QUALIDADE</text><text x="430" y="515">RESPEITO</text></g></svg>