<svg xmlns="http://www.w3.org/2000/svg" viewBox="0 0 1200 630" role="img" aria-labelledby="t d"><title id="t">A história dos incensos</title><desc id="d">Rota histórica estilizada entre templos antigos, resinas e fumaça aromática.</desc><defs><linearGradient id="b" x2="1"><stop stop-color="#120b07"/><stop offset=".5" stop-color="#2a1b10"/><stop offset="1" stop-color="#07100d"/></linearGradient><radialGradient id="g"><stop stop-color="#e5b963" stop-opacity=".55"/><stop offset="1" stop-color="#e5b963" stop-opacity="0"/></radialGradient></defs><rect width="1200" height="630" fill="url(#b)"/><circle cx="920" cy="160" r="260" fill="url(#g)" opacity=".45"/><g fill="#7e5a2d" opacity=".7"><path d="M750 510V260h70v250zM850 510V210h72v300zM950 510V275h68v235z"/><path d="M720 260h330l-165-105z"/><rect x="700" y="510" width="375" height="35"/></g><g fill="none" stroke="#d3a54f" opacity=".7"><path d="M110 470C320 350 520 500 720 355" stroke-width="4" stroke-dasharray="12 14"/><circle cx="110" cy="470" r="10" fill="#d3a54f"/><circle cx="360" cy="400" r="10" fill="#d3a54f"/><circle cx="720" cy="355" r="10" fill="#d3a54f"/></g><g fill="#b37a37"><ellipse cx="230" cy="500" rx="80" ry="25"/><circle cx="205" cy="482" r="15"/><circle cx="238" cy="475" r="18"/><circle cx="270" cy="487" r="14"/></g><g fill="none" stroke="#eee8d8" stroke-linecap="round" opacity=".45"><path d="M230 465C170 410 285 370 215 315C175 282 260 245 225 205" stroke-width="11"/></g><g fill="#f2d89c"><text x="70" y="125" font-family="Arial" font-size="21" letter-spacing="5">AULA 2 · HISTÓRIA</text><text x="70" y="220" font-family="Georgia" font-size="66">A história dos</text><text x="70" y="300" font-family="Georgia" font-size="66">incensos</text><line x1="70" y1="340" x2="560" y2="340" stroke="#d3a54f"/><text x="70" y="395" font-family="Arial" font-size="23">Rotas, povos e tradições ao longo do tempo</text></g></svg>