<svg xmlns="http://www.w3.org/2000/svg" viewBox="0 0 1200 630" role="img" aria-labelledby="t d"><title id="t">O que é um incenso?</title><desc id="d">Ervas, resinas e recipiente de cerâmica soltando fumaça sobre uma mesa de madeira.</desc><defs><linearGradient id="b"><stop stop-color="#07100b"/><stop offset="1" stop-color="#392411"/></linearGradient><radialGradient id="l"><stop stop-color="#f6c86e" stop-opacity=".75"/><stop offset="1" stop-color="#f6c86e" stop-opacity="0"/></radialGradient></defs><rect width="1200" height="630" fill="url(#b)"/><circle cx="930" cy="200" r="280" fill="url(#l)" opacity=".34"/><g opacity=".72"><path d="M0 520C250 470 430 560 650 500S1030 450 1200 510V630H0Z" fill="#1b120b"/><path d="M110 505c100-90 170-75 260-5" stroke="#5d7046" stroke-width="24" fill="none"/><path d="M950 500c70-100 130-100 210-25" stroke="#6d4b2a" stroke-width="28" fill="none"/></g><ellipse cx="790" cy="445" rx="135" ry="42" fill="#17100a" stroke="#d3a54f" stroke-width="4"/><path d="M675 440Q790 605 905 440L875 565Q790 610 705 565Z" fill="#2c1b0e" stroke="#98682f" stroke-width="4"/><ellipse cx="790" cy="438" rx="94" ry="24" fill="#080704"/><g fill="#a96e31"><circle cx="755" cy="428" r="18"/><circle cx="800" cy="420" r="15"/><circle cx="835" cy="433" r="20"/></g><g fill="none" stroke="#f2eee2" stroke-linecap="round" opacity=".62"><path d="M790 405C700 330 860 285 760 200C710 160 820 115 770 55" stroke-width="16"/><path d="M820 405C900 330 770 280 880 205C920 175 850 120 895 65" stroke-width="8"/></g><g fill="#f4dfad"><text x="70" y="130" font-family="Arial" font-size="21" letter-spacing="5">AULA 1 · FUNDAMENTOS</text><text x="70" y="225" font-family="Georgia" font-size="72">O que é um</text><text x="70" y="305" font-family="Georgia" font-size="72">incenso?</text><line x1="70" y1="345" x2="520" y2="345" stroke="#d3a54f"/><text x="70" y="400" font-family="Arial" font-size="24">Aroma, fumaça e diversidade cultural</text></g></svg>