<svg xmlns="http://www.w3.org/2000/svg" viewBox="0 0 1200 630" role="img" aria-labelledby="t d"><title id="t">Incensos — História, Cultura e Tradições</title><desc id="d">Composição editorial escura com resinas, ervas, recipiente de incenso e fumaça dourada.</desc><defs><linearGradient id="bg" x1="0" y1="0" x2="1" y2="1"><stop stop-color="#070907"/><stop offset=".55" stop-color="#17150e"/><stop offset="1" stop-color="#342111"/></linearGradient><radialGradient id="glow"><stop stop-color="#f0c36b" stop-opacity=".8"/><stop offset="1" stop-color="#f0c36b" stop-opacity="0"/></radialGradient><filter id="blur"><feGaussianBlur stdDeviation="18"/></filter></defs><rect width="1200" height="630" fill="url(#bg)"/><circle cx="930" cy="170" r="250" fill="url(#glow)" opacity=".3"/><g fill="#7f5b2d" opacity=".8"><ellipse cx="840" cy="480" rx="150" ry="42"/><ellipse cx="1010" cy="455" rx="90" ry="28"/><ellipse cx="680" cy="510" rx="95" ry="30"/></g><g fill="#d2a354"><circle cx="740" cy="470" r="14"/><circle cx="780" cy="490" r="11"/><circle cx="1020" cy="430" r="17"/><circle cx="1060" cy="452" r="10"/></g><g><ellipse cx="860" cy="405" rx="92" ry="30" fill="#22170d" stroke="#d3a54f" stroke-width="3"/><path d="M780 400 Q860 520 940 400 L920 535 Q860 575 800 535Z" fill="#2a1b0e" stroke="#9d7134" stroke-width="3"/><ellipse cx="860" cy="405" rx="72" ry="20" fill="#090805"/><path d="M825 397c18-34 52-34 70 0" fill="#7b4b22"/><circle cx="860" cy="392" r="12" fill="#e8a84c"/></g><g fill="none" stroke="#e7e2d6" stroke-linecap="round" opacity=".58"><path d="M860 380 C790 320 930 290 840 220 C780 170 900 130 850 70" stroke-width="15"/><path d="M875 382 C955 315 820 275 920 205 C970 170 885 120 930 55" stroke-width="8"/></g><g fill="#f0d291"><text x="70" y="165" font-family="Georgia,serif" font-size="78">INCENSOS</text><text x="75" y="215" font-family="Arial,sans-serif" font-size="23" letter-spacing="7">HISTÓRIA, CULTURA E TRADIÇÕES</text><line x1="75" y1="250" x2="560" y2="250" stroke="#d3a54f"/><text x="75" y="305" font-family="Georgia,serif" font-style="italic" font-size="27">Da origem ancestral ao uso consciente</text></g><g fill="#d3a54f" font-family="Arial,sans-serif" font-size="18"><text x="75" y="530">3 AULAS GRATUITAS</text><text x="300" y="530">CONTEÚDO ILUSTRADO</text><text x="590" y="530">LINGUAGEM ACESSÍVEL</text></g></svg>