<svg xmlns="http://www.w3.org/2000/svg" viewBox="0 0 1200 630" role="img" aria-labelledby="t d"><title id="t">Módulo 1 — O Chamado da Fumaça</title><desc id="d">Recipiente de incenso em mesa de madeira, resinas, ervas e fumaça iluminada em dourado.</desc><defs><linearGradient id="b" x2="1" y2="1"><stop stop-color="#050705"/><stop offset=".6" stop-color="#172015"/><stop offset="1" stop-color="#5a3515"/></linearGradient><radialGradient id="g"><stop stop-color="#ffd47f" stop-opacity=".8"/><stop offset="1" stop-color="#ffd47f" stop-opacity="0"/></radialGradient></defs><rect width="1200" height="630" fill="url(#b)"/><circle cx="940" cy="160" r="280" fill="url(#g)" opacity=".35"/><path d="M720 540c70-150 300-180 400-30" fill="none" stroke="#586746" stroke-width="38" opacity=".45"/><ellipse cx="880" cy="445" rx="140" ry="46" fill="#130e08" stroke="#d3a54f" stroke-width="4"/><path d="M760 445 Q880 620 1000 445 L965 570 Q880 615 795 570Z" fill="#2c1c0f" stroke="#8e6530" stroke-width="4"/><ellipse cx="880" cy="438" rx="100" ry="25" fill="#080705"/><g fill="#b17c38"><circle cx="840" cy="430" r="18"/><circle cx="880" cy="422" r="16"/><circle cx="920" cy="435" r="21"/></g><g fill="none" stroke="#eee7d6" stroke-linecap="round" opacity=".62"><path d="M875 400C790 335 945 295 850 210C800 165 910 115 860 55" stroke-width="16"/><path d="M905 405C980 330 850 280 960 205C1000 175 930 120 975 65" stroke-width="8"/></g><g fill="#f2d89c"><text x="70" y="135" font-family="Arial" font-size="22" letter-spacing="6">MÓDULO 1</text><text x="70" y="230" font-family="Georgia" font-size="68">O CHAMADO</text><text x="70" y="310" font-family="Georgia" font-size="68">DA FUMAÇA</text><line x1="70" y1="350" x2="520" y2="350" stroke="#d3a54f"/><text x="70" y="405" font-family="Arial" font-size="24">História, significado e uso consciente</text></g></svg>